<svg width="115" height="27" viewBox="0 0 115 27" fill="none" xmlns="http://www.w3.org/2000/svg">
<g id="Logo">
<path d="M34.5438 18.9H42.6114V16.47H37.4112V7.31698H34.5438V18.9Z" fill="#340E0E"/>
<path d="M47.3912 17.28C46.241 17.28 45.6416 16.2756 45.6416 14.769C45.6416 13.2624 46.241 12.2418 47.3912 12.2418C48.5414 12.2418 49.157 13.2624 49.157 14.769C49.157 16.2756 48.5414 17.28 47.3912 17.28ZM47.4074 19.1592C50.0804 19.1592 51.83 17.2638 51.83 14.769C51.83 12.2742 50.0804 10.3788 47.4074 10.3788C44.7506 10.3788 42.9686 12.2742 42.9686 14.769C42.9686 17.2638 44.7506 19.1592 47.4074 19.1592Z" fill="#340E0E"/>
<path d="M56.4568 21.7674C57.688 21.7674 58.7734 21.492 59.5024 20.844C60.1666 20.2446 60.604 19.3374 60.604 18.09V10.6056H58.0768V11.4966H58.0444C57.5584 10.8 56.8132 10.3626 55.7116 10.3626C53.6542 10.3626 52.2285 12.0798 52.2285 14.5098C52.2285 17.0532 53.962 18.4464 55.825 18.4464C56.8294 18.4464 57.4612 18.0414 57.9472 17.4906H58.012V18.3168C58.012 19.3212 57.5422 19.9044 56.4244 19.9044C55.5496 19.9044 55.1122 19.5318 54.9664 19.0944H52.4067C52.666 20.8278 54.1726 21.7674 56.4568 21.7674ZM56.4406 16.4862C55.4524 16.4862 54.8044 15.6762 54.8044 14.4288C54.8044 13.1652 55.4524 12.3552 56.4406 12.3552C57.5422 12.3552 58.1254 13.2948 58.1254 14.4126C58.1254 15.579 57.5908 16.4862 56.4406 16.4862Z" fill="#340E0E"/>
<path d="M65.8003 17.28C64.6501 17.28 64.0507 16.2756 64.0507 14.769C64.0507 13.2624 64.6501 12.2418 65.8003 12.2418C66.9505 12.2418 67.5661 13.2624 67.5661 14.769C67.5661 16.2756 66.9505 17.28 65.8003 17.28ZM65.8165 19.1592C68.4895 19.1592 70.2391 17.2638 70.2391 14.769C70.2391 12.2742 68.4895 10.3788 65.8165 10.3788C63.1597 10.3788 61.3777 12.2742 61.3777 14.769C61.3777 17.2638 63.1597 19.1592 65.8165 19.1592Z" fill="#340E0E"/>
<path d="M71.01 18.9H73.6506V10.6056H71.01V18.9ZM71.01 9.45538H73.6506V7.31698H71.01V9.45538Z" fill="#340E0E"/>
<path d="M74.7967 21.6378H77.4373V18.0414H77.4697C77.9881 18.738 78.7495 19.1592 79.8187 19.1592C81.9895 19.1592 83.4314 17.442 83.4314 14.7528C83.4314 12.258 82.0867 10.3626 79.8835 10.3626C78.7495 10.3626 77.9395 10.8648 77.3725 11.61H77.3239V10.6056H74.7967V21.6378ZM79.1384 17.118C78.0043 17.118 77.3563 16.1946 77.3563 14.85C77.3563 13.5054 77.9395 12.4848 79.0897 12.4848C80.2237 12.4848 80.7583 13.4244 80.7583 14.85C80.7583 16.2594 80.1427 17.118 79.1384 17.118Z" fill="#340E0E"/>
<path d="M87.7304 19.1592C89.9012 19.1592 91.505 18.2196 91.505 16.4052C91.505 14.283 89.7878 13.9104 88.3298 13.6674C87.2768 13.473 86.3372 13.392 86.3372 12.8088C86.3372 12.2904 86.8394 12.0474 87.4874 12.0474C88.2164 12.0474 88.7186 12.2742 88.8158 13.0194H91.2458C91.1162 11.3832 89.8526 10.3626 87.5036 10.3626C85.5434 10.3626 83.9234 11.2698 83.9234 13.0194C83.9234 14.9634 85.4624 15.3522 86.9042 15.5952C88.0058 15.7896 89.0102 15.8706 89.0102 16.6158C89.0102 17.1504 88.508 17.442 87.7142 17.442C86.8394 17.442 86.2886 17.037 86.1914 16.2108H83.6966C83.7776 18.0414 85.3004 19.1592 87.7304 19.1592Z" fill="#340E0E"/>
<path d="M95.092 19.143C96.2422 19.143 96.9712 18.6894 97.5706 17.8794H97.6192V18.9H100.146V10.6056H97.5058V15.2388C97.5058 16.227 96.955 16.9074 96.0478 16.9074C95.2054 16.9074 94.8004 16.4052 94.8004 15.498V10.6056H92.176V16.0488C92.176 17.8956 93.1804 19.143 95.092 19.143Z" fill="#340E0E"/>
<path d="M101.295 18.9H103.935V14.2506C103.935 13.2624 104.421 12.5658 105.247 12.5658C106.041 12.5658 106.414 13.0842 106.414 13.9752V18.9H109.054V14.2506C109.054 13.2624 109.524 12.5658 110.367 12.5658C111.16 12.5658 111.533 13.0842 111.533 13.9752V18.9H114.174V13.5054C114.174 11.6424 113.234 10.3626 111.355 10.3626C110.286 10.3626 109.395 10.8162 108.747 11.8206H108.714C108.293 10.9296 107.467 10.3626 106.381 10.3626C105.183 10.3626 104.389 10.9296 103.87 11.7882H103.822V10.6056H101.295V18.9Z" fill="#340E0E"/>
<path fill-rule="evenodd" clip-rule="evenodd" d="M13.5 27C20.9559 27 27 20.9558 27 13.5C27 6.04416 20.9559 0 13.5 0C6.04415 0 0 6.04416 0 13.5C0 20.9558 6.04415 27 13.5 27ZM17.7115 6.28887C17.9165 5.56069 17.2099 5.13009 16.5645 5.58988L7.55536 12.008C6.85545 12.5066 6.96554 13.5 7.72073 13.5H10.0931V13.4816H14.7167L10.9493 14.8109L9.28849 20.7112C9.08349 21.4393 9.79008 21.8699 10.4355 21.4101L19.4447 14.9921C20.1446 14.4935 20.0344 13.5 19.2793 13.5H15.6817L17.7115 6.28887Z" fill="#F15757"/>
</g>
</svg>
